<mxfile host="65bd71144e">
    <diagram id="2vU3KewfErsJAKGqVK2e" name="Page-1">
        <mxGraphModel dx="1239" dy="329" grid="1" gridSize="10" guides="1" tooltips="1" connect="1" arrows="1" fold="1" page="1" pageScale="1" pageWidth="850" pageHeight="1100" math="0" shadow="0">
            <root>
                <mxCell id="0"/>
                <mxCell id="1" parent="0"/>
                <mxCell id="2" value="" style="rounded=0;whiteSpace=wrap;html=1;" vertex="1" parent="1">
                    <mxGeometry x="100" y="80" width="700" height="510" as="geometry"/>
                </mxCell>
                <mxCell id="3" value="Angular Project Architecture" style="text;html=1;strokeColor=none;fillColor=none;align=center;verticalAlign=middle;whiteSpace=wrap;rounded=0;" vertex="1" parent="1">
                    <mxGeometry x="280" y="40" width="350" height="30" as="geometry"/>
                </mxCell>
                <mxCell id="4" value="Header Component" style="rounded=0;whiteSpace=wrap;html=1;" vertex="1" parent="1">
                    <mxGeometry x="265" y="130" width="380" height="30" as="geometry"/>
                </mxCell>
                <mxCell id="5" value="App Component" style="text;html=1;strokeColor=none;fillColor=none;align=center;verticalAlign=middle;whiteSpace=wrap;rounded=0;" vertex="1" parent="1">
                    <mxGeometry x="700" y="50" width="110" height="30" as="geometry"/>
                </mxCell>
                <mxCell id="6" value="" style="rounded=0;whiteSpace=wrap;html=1;" vertex="1" parent="1">
                    <mxGeometry x="265" y="190" width="385" height="180" as="geometry"/>
                </mxCell>
                <mxCell id="7" value="Home" style="text;html=1;strokeColor=none;fillColor=none;align=center;verticalAlign=middle;whiteSpace=wrap;rounded=0;" vertex="1" parent="1">
                    <mxGeometry x="590" y="160" width="60" height="30" as="geometry"/>
                </mxCell>
                <mxCell id="8" value="Dashboard" style="rounded=0;whiteSpace=wrap;html=1;" vertex="1" parent="1">
                    <mxGeometry x="290" y="220" width="90" height="60" as="geometry"/>
                </mxCell>
                <mxCell id="9" value="Hero" style="rounded=0;whiteSpace=wrap;html=1;" vertex="1" parent="1">
                    <mxGeometry x="425" y="220" width="90" height="60" as="geometry"/>
                </mxCell>
                <mxCell id="10" value="HeroList" style="rounded=0;whiteSpace=wrap;html=1;" vertex="1" parent="1">
                    <mxGeometry x="425" y="300" width="95" height="60" as="geometry"/>
                </mxCell>
                <mxCell id="11" value="details" style="rounded=0;whiteSpace=wrap;html=1;" vertex="1" parent="1">
                    <mxGeometry x="550" y="220" width="80" height="60" as="geometry"/>
                </mxCell>
            </root>
        </mxGraphModel>
    </diagram>
</mxfile>
